<?xml version="1.0" standalone="no"?>
<!DOCTYPE svg PUBLIC "-//W3C//DTD SVG 20010904//EN"
 "http://www.w3.org/TR/2001/REC-SVG-20010904/DTD/svg10.dtd">
<svg version="1.0" xmlns="http://www.w3.org/2000/svg"
 width="1581.000000pt" height="1581.000000pt" viewBox="0 0 1581.000000 1581.000000"
 preserveAspectRatio="xMidYMid meet">
<metadata>
Created by potrace 1.11, written by Peter Selinger 2001-2013
</metadata>
<g transform="translate(0.000000,1581.000000) scale(0.100000,-0.100000)"
fill="#000000" stroke="none">
<path d="M0 7905 l0 -7905 7905 0 7905 0 0 7905 0 7905 -7905 0 -7905 0 0
-7905z m15460 0 l0 -7555 -7555 0 -7555 0 0 7555 0 7555 7555 0 7555 0 0
-7555z"/>
<path d="M13075 12643 c-11 -3 -310 -110 -665 -238 -355 -128 -2287 -825
-4295 -1550 -2007 -724 -3670 -1326 -3694 -1338 -53 -26 -91 -89 -91 -148 0
-25 79 -257 221 -651 121 -336 227 -624 235 -640 38 -73 126 -111 200 -86 21
8 300 158 619 333 1811 995 2371 1296 3680 1978 511 266 1758 911 2190 1133
1768 908 1748 897 1778 941 75 106 5 253 -126 268 -18 2 -41 1 -52 -2z"/>
<path d="M3326 8895 c-97 -20 -159 -42 -251 -88 -257 -128 -444 -361 -522
-655 -23 -85 -26 -116 -26 -252 0 -134 3 -168 25 -250 138 -518 630 -823 1133
-701 181 44 315 121 455 261 155 155 236 306 281 522 26 129 22 328 -9 449
-91 344 -334 597 -667 694 -113 33 -310 43 -419 20z"/>
<path d="M4861 7798 c-25 -13 -53 -34 -63 -48 -9 -14 -119 -308 -244 -655
-201 -560 -225 -635 -221 -677 5 -60 45 -114 101 -138 23 -10 1976 -715 4341
-1566 3428 -1234 4309 -1548 4346 -1548 149 1 221 180 116 289 -23 23 -277
158 -857 456 -2540 1300 -4213 2172 -5225 2722 -132 71 -672 366 -1199 655
-1054 577 -1008 556 -1095 510z"/>
</g>
</svg>
